<?xml version="1.0" encoding="UTF-8" standalone="no"?>
<svg
   style="font-style:normal;font-weight:normal;font-size:12px;font-family:Dialog;color-interpolation:auto;fill:#000000;fill-opacity:1;stroke:#000000;stroke-width:1;stroke-linecap:square;stroke-linejoin:miter;stroke-miterlimit:10;stroke-dasharray:none;stroke-dashoffset:0;stroke-opacity:1;color-rendering:auto;image-rendering:auto;shape-rendering:auto;text-rendering:auto"
   contentScriptType="text/ecmascript"
   preserveAspectRatio="xMidYMid meet"
   zoomAndPan="magnify"
   version="1.0"
   contentStyleType="text/css"
   id="svg255"
   sodipodi:docname="average.svg"
   width="993.69519"
   height="475.18677"
   inkscape:version="1.1.1 (3bf5ae0d25, 2021-09-20, custom)"
   xmlns:inkscape="http://www.inkscape.org/namespaces/inkscape"
   xmlns:sodipodi="http://sodipodi.sourceforge.net/DTD/sodipodi-0.dtd"
   xmlns="http://www.w3.org/2000/svg"
   xmlns:svg="http://www.w3.org/2000/svg">
  <sodipodi:namedview
     id="namedview257"
     pagecolor="#ffffff"
     bordercolor="#999999"
     borderopacity="1"
     inkscape:pageshadow="0"
     inkscape:pageopacity="0"
     inkscape:pagecheckerboard="0"
     showgrid="false"
     inkscape:zoom="0.56945229"
     inkscape:cx="195.80218"
     inkscape:cy="295.02032"
     inkscape:window-width="1920"
     inkscape:window-height="1020"
     inkscape:window-x="0"
     inkscape:window-y="0"
     inkscape:window-maximized="1"
     inkscape:current-layer="svg255" />
  <!--Generated by the Batik Graphics2D SVG Generator-->
  <defs
     id="genericDefs" />
  <g
     id="g253"
     transform="translate(-23.5938,-8.313229)">
    <defs
       id="defs1">
      <clipPath
         clipPathUnits="userSpaceOnUse"
         id="clipPath1">
        <path
           d="m 357,462 h 311 v 24 H 357 Z"
           id="path3" />
      </clipPath>
      <clipPath
         clipPathUnits="userSpaceOnUse"
         id="clipPath2">
        <path
           d="m 360,465 v 18 h 75 v -18 z"
           id="path6" />
      </clipPath>
      <clipPath
         clipPathUnits="userSpaceOnUse"
         id="clipPath3">
        <path
           d="M -2,-1 V 17 H 73 V -1 Z"
           id="path9" />
      </clipPath>
      <clipPath
         clipPathUnits="userSpaceOnUse"
         id="clipPath4">
        <path
           d="M 0,0 V 18 H 75 V 0 Z"
           id="path12" />
      </clipPath>
      <clipPath
         clipPathUnits="userSpaceOnUse"
         id="clipPath5">
        <path
           d="M 37,0 V 17 H 74 V 0 Z"
           id="path15" />
      </clipPath>
      <clipPath
         clipPathUnits="userSpaceOnUse"
         id="clipPath6">
        <path
           d="m 434,465 v 18 h 78 v -18 z"
           id="path18" />
      </clipPath>
      <clipPath
         clipPathUnits="userSpaceOnUse"
         id="clipPath7">
        <path
           d="M -2,-1 V 17 H 76 V -1 Z"
           id="path21" />
      </clipPath>
      <clipPath
         clipPathUnits="userSpaceOnUse"
         id="clipPath8">
        <path
           d="M 0,0 V 18 H 78 V 0 Z"
           id="path24" />
      </clipPath>
      <clipPath
         clipPathUnits="userSpaceOnUse"
         id="clipPath9">
        <path
           d="M 37,0 V 17 H 77 V 0 Z"
           id="path27" />
      </clipPath>
      <clipPath
         clipPathUnits="userSpaceOnUse"
         id="clipPath10">
        <path
           d="m 511,465 v 18 h 78 v -18 z"
           id="path30" />
      </clipPath>
      <clipPath
         clipPathUnits="userSpaceOnUse"
         id="clipPath11">
        <path
           d="m 588,465 v 18 h 78 v -18 z"
           id="path33" />
      </clipPath>
      <clipPath
         clipPathUnits="userSpaceOnUse"
         id="clipPath12">
        <path
           d="M 0,0 H 1014 V 454 H 0 Z"
           id="path36" />
      </clipPath>
      <clipPath
         clipPathUnits="userSpaceOnUse"
         id="clipPath13">
        <path
           d="M 42,0.0049 V 412 h 972 V 0.0049 Z"
           id="path39" />
      </clipPath>
      <clipPath
         clipPathUnits="userSpaceOnUse"
         id="clipPath14">
        <path
           d="m 520,437 v 15 h 15 v -15 z"
           id="path42" />
      </clipPath>
      <clipPath
         clipPathUnits="userSpaceOnUse"
         id="clipPath15">
        <path
           d="M 6,5 H 1020 V 459 H 6 Z"
           id="path45" />
      </clipPath>
    </defs>
    <g
       transform="translate(362,466)"
       style="font-family:'Times New Roman';color-interpolation:linearRGB;fill:#2f4b7c;stroke:#2f4b7c;stroke-width:1.5;stroke-linecap:butt;stroke-linejoin:round;color-rendering:optimizeQuality;image-rendering:optimizeQuality;text-rendering:optimizeLegibility"
       id="g51">
      <path
         d="M 0,7 H 34"
         style="fill:none"
         clip-path="url(#clipPath3)"
         id="path49" />
    </g>
    <g
       transform="translate(360,465)"
       style="font-family:'Times New Roman';color-interpolation:linearRGB;stroke-width:1.5;stroke-linecap:butt;stroke-linejoin:round;color-rendering:optimizeQuality;image-rendering:optimizeQuality;text-rendering:optimizeLegibility"
       id="g55">
      <path
         d="m 50.5938,11.25 0.25,0.0469 L 49.9844,14 h -7.6875 v -0.2656 h 0.375 q 0.625,0 0.9062,-0.4219 0.1563,-0.2344 0.1563,-1.0781 V 5.8281 q 0,-0.9375 -0.2032,-1.1719 -0.2968,-0.3124 -0.8593,-0.3124 h -0.375 V 4.0625 h 4.5 V 4.3438 Q 46,4.3281 45.6875,4.4844 45.375,4.6406 45.25,4.875 45.1406,5.1094 45.1406,6 v 6.2344 q 0,0.6094 0.1094,0.8281 0.0938,0.1563 0.2656,0.2344 0.1875,0.0781 1.1563,0.0781 h 0.7187 q 1.1406,0 1.5938,-0.1719 0.4687,-0.1719 0.8437,-0.5937 0.3907,-0.4375 0.7657,-1.3594 z m 9.1625,0 0.25,0.0469 L 59.147,14 h -7.6875 v -0.2656 h 0.375 q 0.625,0 0.9062,-0.4219 0.1563,-0.2344 0.1563,-1.0781 V 5.8281 q 0,-0.9375 -0.2032,-1.1719 Q 52.397,4.3438 51.8345,4.3438 h -0.375 V 4.0625 h 4.5 V 4.3438 Q 55.1626,4.3281 54.8501,4.4844 54.5376,4.6406 54.4126,4.875 54.3032,5.1094 54.3032,6 v 6.2344 q 0,0.6094 0.1094,0.8281 0.0937,0.1563 0.2656,0.2344 0.1875,0.0781 1.1563,0.0781 h 0.7187 q 1.1406,0 1.5938,-0.1719 0.4687,-0.1719 0.8437,-0.5937 0.3906,-0.4375 0.7656,-1.3594 z m 9.1626,0 0.25,0.0469 L 68.3096,14 h -7.6875 v -0.2656 h 0.375 q 0.625,0 0.9062,-0.4219 0.1563,-0.2344 0.1563,-1.0781 V 5.8281 q 0,-0.9375 -0.2032,-1.1719 -0.2968,-0.3124 -0.8593,-0.3124 h -0.375 V 4.0625 h 4.5 V 4.3438 Q 64.3252,4.3281 64.0127,4.4844 63.7002,4.6406 63.5752,4.875 63.4658,5.1094 63.4658,6 v 6.2344 q 0,0.6094 0.1094,0.8281 0.0937,0.1563 0.2656,0.2344 0.1875,0.0781 1.1563,0.0781 h 0.7187 q 1.1406,0 1.5938,-0.1719 0.4687,-0.1719 0.8437,-0.5937 0.3906,-0.4375 0.7656,-1.3594 z"
         style="stroke:none"
         clip-path="url(#clipPath5)"
         id="path53" />
    </g>
    <g
       transform="translate(436,466)"
       style="font-family:'Times New Roman';color-interpolation:linearRGB;fill:#a05195;stroke:#a05195;stroke-width:1.5;stroke-linecap:butt;stroke-linejoin:round;color-rendering:optimizeQuality;image-rendering:optimizeQuality;text-rendering:optimizeLegibility"
       id="g59">
      <path
         d="M 0,7 H 34"
         style="fill:none"
         clip-path="url(#clipPath7)"
         id="path57" />
    </g>
    <g
       transform="translate(434,465)"
       style="font-family:'Times New Roman';color-interpolation:linearRGB;stroke-width:1.5;stroke-linecap:butt;stroke-linejoin:round;color-rendering:optimizeQuality;image-rendering:optimizeQuality;text-rendering:optimizeLegibility"
       id="g63">
      <path
         d="m 50.5938,11.25 0.25,0.0469 L 49.9844,14 h -7.6875 v -0.2656 h 0.375 q 0.625,0 0.9062,-0.4219 0.1563,-0.2344 0.1563,-1.0781 V 5.8281 q 0,-0.9375 -0.2032,-1.1719 -0.2968,-0.3124 -0.8593,-0.3124 h -0.375 V 4.0625 h 4.5 V 4.3438 Q 46,4.3281 45.6875,4.4844 45.375,4.6406 45.25,4.875 45.1406,5.1094 45.1406,6 v 6.2344 q 0,0.6094 0.1094,0.8281 0.0938,0.1563 0.2656,0.2344 0.1875,0.0781 1.1563,0.0781 h 0.7187 q 1.1406,0 1.5938,-0.1719 0.4687,-0.1719 0.8437,-0.5937 0.3907,-0.4375 0.7657,-1.3594 z m 3.6469,-2.5781 h 4.625 V 5.8281 q 0,-0.75 -0.0937,-1 Q 58.6938,4.6406 58.4595,4.5156 58.147,4.3438 57.7876,4.3438 H 57.4438 V 4.0625 h 4.25 v 0.2813 h -0.3593 q -0.3438,0 -0.6719,0.1562 -0.2344,0.125 -0.3125,0.3594 -0.0781,0.2344 -0.0781,0.9687 v 6.4063 q 0,0.7656 0.0937,1 0.0625,0.1875 0.2969,0.3125 0.3281,0.1875 0.6719,0.1875 h 0.3593 V 14 h -4.25 v -0.2656 h 0.3438 q 0.6094,0 0.8906,-0.3594 0.1875,-0.2344 0.1875,-1.1406 V 9.2188 h -4.625 v 3.0156 q 0,0.7656 0.0938,1 0.0781,0.1875 0.3125,0.3125 0.3125,0.1875 0.6718,0.1875 h 0.3594 V 14 h -4.2656 v -0.2656 h 0.3594 q 0.6093,0 0.8906,-0.3594 0.1719,-0.2344 0.1719,-1.1406 V 5.8281 q 0,-0.75 -0.0938,-1 Q 52.6782,4.6406 52.4438,4.5156 52.1157,4.3438 51.772,4.3438 H 51.4126 V 4.0625 h 4.2656 v 0.2813 h -0.3594 q -0.3593,0 -0.6718,0.1562 -0.2188,0.125 -0.3125,0.3594 -0.0938,0.2344 -0.0938,0.9687 z m 10.8325,0 h 4.625 V 5.8281 q 0,-0.75 -0.0937,-1 Q 69.5264,4.6406 69.292,4.5156 68.9795,4.3438 68.6201,4.3438 H 68.2764 V 4.0625 h 4.25 V 4.3438 H 72.167 q -0.3438,0 -0.6719,0.1562 -0.2344,0.125 -0.3125,0.3594 -0.0781,0.2344 -0.0781,0.9687 v 6.4063 q 0,0.7656 0.0937,1 0.0625,0.1875 0.2969,0.3125 0.3281,0.1875 0.6719,0.1875 h 0.3594 V 14 h -4.25 v -0.2656 h 0.3437 q 0.6094,0 0.8906,-0.3594 0.1875,-0.2344 0.1875,-1.1406 V 9.2188 h -4.625 v 3.0156 q 0,0.7656 0.0938,1 0.0781,0.1875 0.3125,0.3125 0.3125,0.1875 0.6719,0.1875 h 0.3593 V 14 h -4.2656 v -0.2656 h 0.3594 q 0.6094,0 0.8906,-0.3594 0.1719,-0.2344 0.1719,-1.1406 V 5.8281 q 0,-0.75 -0.0938,-1 Q 63.5107,4.6406 63.2764,4.5156 62.9482,4.3438 62.6045,4.3438 H 62.2451 V 4.0625 h 4.2656 v 0.2813 h -0.3593 q -0.3594,0 -0.6719,0.1562 -0.2188,0.125 -0.3125,0.3594 -0.0938,0.2344 -0.0938,0.9687 z"
         style="stroke:none"
         clip-path="url(#clipPath9)"
         id="path61" />
    </g>
    <g
       transform="translate(513,466)"
       style="font-family:'Times New Roman';color-interpolation:linearRGB;fill:#f95d6a;stroke:#f95d6a;stroke-width:1.5;stroke-linecap:butt;stroke-linejoin:round;color-rendering:optimizeQuality;image-rendering:optimizeQuality;text-rendering:optimizeLegibility"
       id="g67">
      <path
         d="M 0,7 H 34"
         style="fill:none"
         clip-path="url(#clipPath7)"
         id="path65" />
    </g>
    <g
       transform="translate(511,465)"
       style="font-family:'Times New Roman';color-interpolation:linearRGB;stroke-width:1.5;stroke-linecap:butt;stroke-linejoin:round;color-rendering:optimizeQuality;image-rendering:optimizeQuality;text-rendering:optimizeLegibility"
       id="g71">
      <path
         d="m 45.0781,8.6719 h 4.625 V 5.8281 q 0,-0.75 -0.0937,-1 Q 49.5312,4.6406 49.2969,4.5156 48.9844,4.3438 48.625,4.3438 H 48.2812 V 4.0625 h 4.25 V 4.3438 H 52.1719 Q 51.8281,4.3438 51.5,4.5 51.2656,4.625 51.1875,4.8594 51.1094,5.0938 51.1094,5.8281 v 6.4063 q 0,0.7656 0.0937,1 0.0625,0.1875 0.2969,0.3125 0.3281,0.1875 0.6719,0.1875 h 0.3593 V 14 h -4.25 v -0.2656 h 0.3438 q 0.6094,0 0.8906,-0.3594 0.1875,-0.2344 0.1875,-1.1406 V 9.2188 h -4.625 v 3.0156 q 0,0.7656 0.0938,1 0.0781,0.1875 0.3125,0.3125 0.3125,0.1875 0.6718,0.1875 h 0.3594 V 14 H 42.25 v -0.2656 h 0.3594 q 0.6094,0 0.8906,-0.3594 0.1719,-0.2344 0.1719,-1.1406 V 5.8281 q 0,-0.75 -0.0938,-1 Q 43.5156,4.6406 43.2812,4.5156 42.9531,4.3438 42.6094,4.3438 H 42.25 V 4.0625 h 4.2656 v 0.2813 h -0.3594 q -0.3593,0 -0.6718,0.1562 -0.2188,0.125 -0.3125,0.3594 -0.0938,0.2344 -0.0938,0.9687 z m 16.3482,2.5781 0.25,0.0469 L 60.8169,14 h -7.6875 v -0.2656 h 0.375 q 0.625,0 0.9062,-0.4219 0.1563,-0.2344 0.1563,-1.0781 V 5.8281 q 0,-0.9375 -0.2031,-1.1719 -0.2969,-0.3124 -0.8594,-0.3124 h -0.375 V 4.0625 h 4.5 V 4.3438 Q 56.8325,4.3281 56.52,4.4844 56.2075,4.6406 56.0825,4.875 55.9731,5.1094 55.9731,6 v 6.2344 q 0,0.6094 0.1094,0.8281 0.0938,0.1563 0.2656,0.2344 0.1875,0.0781 1.1563,0.0781 h 0.7187 q 1.1407,0 1.5938,-0.1719 0.4687,-0.1719 0.8437,-0.5937 0.3907,-0.4375 0.7657,-1.3594 z m 3.6469,-2.5781 h 4.625 V 5.8281 q 0,-0.75 -0.0937,-1 Q 69.5264,4.6406 69.292,4.5156 68.9795,4.3438 68.6201,4.3438 H 68.2764 V 4.0625 h 4.25 V 4.3438 H 72.167 q -0.3438,0 -0.6719,0.1562 -0.2344,0.125 -0.3125,0.3594 -0.0781,0.2344 -0.0781,0.9687 v 6.4063 q 0,0.7656 0.0937,1 0.0625,0.1875 0.2969,0.3125 0.3281,0.1875 0.6719,0.1875 h 0.3594 V 14 h -4.25 v -0.2656 h 0.3437 q 0.6094,0 0.8906,-0.3594 0.1875,-0.2344 0.1875,-1.1406 V 9.2188 h -4.625 v 3.0156 q 0,0.7656 0.0938,1 0.0781,0.1875 0.3125,0.3125 0.3125,0.1875 0.6719,0.1875 h 0.3593 V 14 h -4.2656 v -0.2656 h 0.3594 q 0.6094,0 0.8906,-0.3594 0.1719,-0.2344 0.1719,-1.1406 V 5.8281 q 0,-0.75 -0.0938,-1 Q 63.5107,4.6406 63.2764,4.5156 62.9482,4.3438 62.6045,4.3438 H 62.2451 V 4.0625 h 4.2656 v 0.2813 h -0.3593 q -0.3594,0 -0.6719,0.1562 -0.2188,0.125 -0.3125,0.3594 -0.0938,0.2344 -0.0938,0.9687 z"
         style="stroke:none"
         clip-path="url(#clipPath9)"
         id="path69" />
    </g>
    <g
       transform="translate(590,466)"
       style="font-family:'Times New Roman';color-interpolation:linearRGB;fill:#ffa600;stroke:#ffa600;stroke-width:1.5;stroke-linecap:butt;stroke-linejoin:round;color-rendering:optimizeQuality;image-rendering:optimizeQuality;text-rendering:optimizeLegibility"
       id="g75">
      <path
         d="M 0,7 H 34"
         style="fill:none"
         clip-path="url(#clipPath7)"
         id="path73" />
    </g>
    <g
       transform="translate(588,465)"
       style="font-family:'Times New Roman';color-interpolation:linearRGB;stroke-width:1.5;stroke-linecap:butt;stroke-linejoin:round;color-rendering:optimizeQuality;image-rendering:optimizeQuality;text-rendering:optimizeLegibility"
       id="g79">
      <path
         d="m 45.0781,8.6719 h 4.625 V 5.8281 q 0,-0.75 -0.0937,-1 Q 49.5312,4.6406 49.2969,4.5156 48.9844,4.3438 48.625,4.3438 H 48.2812 V 4.0625 h 4.25 V 4.3438 H 52.1719 Q 51.8281,4.3438 51.5,4.5 51.2656,4.625 51.1875,4.8594 51.1094,5.0938 51.1094,5.8281 v 6.4063 q 0,0.7656 0.0937,1 0.0625,0.1875 0.2969,0.3125 0.3281,0.1875 0.6719,0.1875 h 0.3593 V 14 h -4.25 v -0.2656 h 0.3438 q 0.6094,0 0.8906,-0.3594 0.1875,-0.2344 0.1875,-1.1406 V 9.2188 h -4.625 v 3.0156 q 0,0.7656 0.0938,1 0.0781,0.1875 0.3125,0.3125 0.3125,0.1875 0.6718,0.1875 h 0.3594 V 14 H 42.25 v -0.2656 h 0.3594 q 0.6094,0 0.8906,-0.3594 0.1719,-0.2344 0.1719,-1.1406 V 5.8281 q 0,-0.75 -0.0938,-1 Q 43.5156,4.6406 43.2812,4.5156 42.9531,4.3438 42.6094,4.3438 H 42.25 V 4.0625 h 4.2656 v 0.2813 h -0.3594 q -0.3593,0 -0.6718,0.1562 -0.2188,0.125 -0.3125,0.3594 -0.0938,0.2344 -0.0938,0.9687 z m 10.8325,0 h 4.625 V 5.8281 q 0,-0.75 -0.0937,-1 Q 60.3638,4.6406 60.1294,4.5156 59.8169,4.3438 59.4575,4.3438 H 59.1138 V 4.0625 h 4.25 v 0.2813 h -0.3594 q -0.3438,0 -0.6719,0.1562 -0.2344,0.125 -0.3125,0.3594 -0.0781,0.2344 -0.0781,0.9687 v 6.4063 q 0,0.7656 0.0937,1 0.0625,0.1875 0.2969,0.3125 0.3281,0.1875 0.6719,0.1875 h 0.3594 V 14 h -4.25 v -0.2656 h 0.3437 q 0.6094,0 0.8906,-0.3594 0.1875,-0.2344 0.1875,-1.1406 V 9.2188 h -4.625 v 3.0156 q 0,0.7656 0.0938,1 0.0781,0.1875 0.3125,0.3125 0.3125,0.1875 0.6719,0.1875 h 0.3593 V 14 h -4.2656 v -0.2656 h 0.3594 q 0.6094,0 0.8906,-0.3594 0.1719,-0.2344 0.1719,-1.1406 V 5.8281 q 0,-0.75 -0.0938,-1 Q 54.3481,4.6406 54.1138,4.5156 53.7856,4.3438 53.4419,4.3438 H 53.0825 V 4.0625 h 4.2656 v 0.2813 h -0.3593 q -0.3594,0 -0.6719,0.1562 -0.2188,0.125 -0.3125,0.3594 -0.0938,0.2344 -0.0938,0.9687 z m 16.3482,2.5781 0.25,0.0469 L 71.6494,14 h -7.6875 v -0.2656 h 0.375 q 0.625,0 0.9063,-0.4219 0.1562,-0.2344 0.1562,-1.0781 V 5.8281 q 0,-0.9375 -0.2031,-1.1719 -0.2969,-0.3124 -0.8594,-0.3124 h -0.375 V 4.0625 h 4.5 V 4.3438 Q 67.665,4.3281 67.3525,4.4844 67.04,4.6406 66.915,4.875 66.8057,5.1094 66.8057,6 v 6.2344 q 0,0.6094 0.1093,0.8281 0.0938,0.1563 0.2657,0.2344 0.1875,0.0781 1.1562,0.0781 h 0.7188 q 1.1406,0 1.5937,-0.1719 0.4688,-0.1719 0.8438,-0.5937 0.3906,-0.4375 0.7656,-1.3594 z"
         style="stroke:none"
         clip-path="url(#clipPath9)"
         id="path77" />
    </g>
    <g
       style="font-family:'Times New Roman';color-interpolation:linearRGB;color-rendering:optimizeQuality;image-rendering:optimizeQuality;text-rendering:optimizeLegibility"
       id="g83">
      <rect
         x="358"
         y="463"
         width="307"
         style="fill:none"
         height="20"
         clip-path="url(#clipPath1)"
         id="rect81" />
    </g>
    <g
       transform="translate(6,5)"
       style="font-family:'Times New Roman';color-interpolation:linearRGB;fill:#2f4b7c;stroke:#2f4b7c;stroke-width:1.5;stroke-linecap:butt;stroke-linejoin:round;color-rendering:optimizeQuality;image-rendering:optimizeQuality;text-rendering:optimizeLegibility"
       id="g87">
      <path
         d="m 45,409 4.3373,-2.1293 3.7738,-1.8527 4.244,-2.0836 4.2722,-2.0973 4.2519,-2.0874 3.942,-1.9353 4.0818,-2.0039 4.2214,-2.0724 4.2078,-2.0657 4.3282,-2.1249 3.8124,-1.8716 4.2917,-2.107 4.3094,-2.1156 4.153,-2.0388 3.7712,-1.8515 4.4844,-2.2015 3.7988,-1.865 4.419,-2.1694 3.9115,-1.9203 4.2916,-2.1069 4.0866,-2.0062 4.2639,-2.0933 3.9156,-1.9223 4.2236,-2.0735 4.387,-2.1538 3.8189,-1.8748 4.1246,-2.0249 4.2611,-2.0919 4.1686,-2.0465 4.0334,-1.9801 4.4783,-2.1986 4.0241,-1.9755 4.2964,-2.1094 3.8933,-1.9113 4.2564,-2.0896 4.0049,-1.9661 4.1862,-2.0552 4.0929,-2.0093 4.2848,-2.1036 4.1268,-2.026 4.2203,-2.0718 4.1853,-2.0547 3.8459,-1.8881 4.4078,-2.1639 3.9424,-1.9355 4.2034,-2.0636 4.0232,-1.9751 4.4672,-2.1931 3.8683,-1.8991 4.3905,-2.1555 4.0016,-1.9645 4.377,-2.1488 3.7766,-1.8541 4.3012,-2.1116 4.1547,-2.0396 4.152,-2.0384 4.1367,-2.0308 3.9741,-1.9511 4.2961,-2.1091 4.0944,-2.0101 4.3092,-2.1155 3.901,-1.9151 4.3112,-2.1166 4.1294,-2.0272 4.1194,-2.0223 4.3027,-2.1124 3.9629,-1.9455 4.0586,-1.9925 4.4812,-2.2 4.0573,-1.9919 4.1494,-2.037 4.2198,-2.0717 3.8788,-1.9042 4.1347,-2.0299 4.1032,-2.0144 4.3892,-2.1548 3.8733,-1.9015 4.4689,-2.1939 4.0329,-1.9799 3.9903,-1.959 4.2909,-2.1065 4.3082,-2.1151 3.9198,-1.9244 4.1627,-2.0436 4.0624,-1.9944 4.4037,-2.1619 3.8104,-1.8706 4.3764,-2.1485 4.114,-2.0198 4.0743,-2.0002 4.0776,-2.0018 4.1588,-2.0417 4.4083,-2.1642 4.042,-1.9843 3.9899,-1.9588 4.2652,-2.0939 4.2559,-2.0894 3.8199,-1.8753 4.525,-2.2215 3.7863,-1.8588 4.4285,-2.1741 4.2265,-2.075 3.7739,-1.8527 4.244,-2.0835 4.2722,-2.0974 4.2519,-2.0874 3.942,-1.9353 4.0818,-2.0038 4.2213,-2.0724 4.2078,-2.0658 4.3283,-2.1249 3.8124,-1.8716 4.2917,-2.107 4.3095,-2.1156 4.1529,-2.0388 3.7712,-1.8514 4.4844,-2.2016 3.7988,-1.8649 4.419,-2.1695 3.9115,-1.9203 4.2916,-2.1069 4.0866,-2.0062 4.2639,-2.0933 3.9156,-1.9223 4.2235,-2.0735 4.3871,-2.1538 3.8189,-1.8748 4.1246,-2.0249 4.2611,-2.0919 4.1686,-2.0465 4.0333,-1.9801 4.4785,-2.1986 4.0239,-1.9755 4.2966,-2.1093 3.8932,-1.9114 4.2564,-2.0895 4.0049,-1.9662 4.1862,-2.0552 4.0929,-2.0093 4.2848,-2.1036 4.1268,-2.0259 4.2203,-2.0719 4.1853,-2.0547 3.8459,-1.8881 4.4077,-2.1639 3.9425,-1.9355 4.2033,-2.0636 4.0232,-1.9751 4.4673,-2.1931 3.8683,-1.8991 4.3906,-2.1555 4.0015,-1.9644 4.377,-2.1489 3.7766,-1.854 4.3012,-2.1116 4.1546,-2.0397 4.1521,-2.0384 4.1366,-2.0308 3.9742,-1.951 4.296,-2.1091 4.0945,-2.0101 4.3093,-2.1156 3.9009,-1.9151 4.3112,-2.1165 4.1294,-2.0273 4.1194,-2.0223 4.3027,-2.1123 3.9629,-1.9456 4.0586,-1.9925 4.4811,-2.1999 4.0574,-1.9919 4.1493,-2.0371 4.2199,-2.0717 3.8788,-1.9042 4.1347,-2.0298 4.1032,-2.0144 4.3892,-2.1549 3.8732,-1.9015 4.469,-2.1939 4.0329,-1.9799 3.9903,-1.959 4.2908,-2.1065 4.3083,-2.115 3.9198,-1.9244 4.1627,-2.0436 4.0625,-1.9944 4.4036,-2.1619 3.8104,-1.8707 4.3764,-2.1485 4.114,-2.0197 4.0744,-2.0002 4.0775,-2.0018 4.1588,-2.0418 4.4083,-2.1641 4.0419,-1.9844 3.99,-1.9588 4.2652,-2.0939 4.2559,-2.0894 4.0126,-1.9699"
         style="fill:none"
         clip-path="url(#clipPath13)"
         id="path85" />
    </g>
    <g
       transform="translate(6,5)"
       style="font-family:'Times New Roman';color-interpolation:linearRGB;fill:#a05195;stroke:#a05195;stroke-width:1.5;stroke-linecap:butt;stroke-linejoin:round;color-rendering:optimizeQuality;image-rendering:optimizeQuality;text-rendering:optimizeLegibility"
       id="g91">
      <path
         d="m 45,409 4.2585,-2.1293 3.7053,-1.8527 4.167,-2.0836 4.1946,-2.0973 4.1746,-2.0874 3.8705,-1.9353 4.0076,-2.0039 4.1447,-2.0724 4.1314,-2.0657 4.2497,-2.1249 3.7431,-1.8716 4.2138,-2.107 4.2312,-2.1156 4.0775,-2.0388 3.7027,-1.8515 4.403,-2.2015 3.7298,-1.865 4.3387,-2.1694 3.8405,-1.9203 4.2137,-2.1069 4.0123,-2.0062 4.1866,-2.0933 3.8445,-1.9223 4.1468,-2.0735 4.3074,-2.1538 3.7496,-1.8748 4.0496,-2.0249 4.1837,-2.0919 4.0929,-2.0465 3.9602,-1.9801 4.397,-2.1986 3.9509,-1.9755 4.2185,-2.1094 3.8226,-1.9113 4.179,-2.0896 3.9322,-1.9661 4.1103,-2.0552 4.0185,-2.0093 4.207,-2.1036 4.0519,-2.026 4.1436,-2.0718 4.1093,-2.0547 3.776,-1.8881 4.3278,-2.1639 3.8708,-1.9355 4.1271,-2.0636 3.9501,-1.9751 4.3861,-2.1931 3.798,-1.8991 4.3109,-2.1555 3.9288,-1.9645 4.2976,-2.1488 3.708,-1.8541 4.2231,-2.1116 4.0792,-2.0396 4.0766,-2.0384 4.0616,-2.0308 3.9019,-1.9511 4.2181,-2.1091 4.0201,-2.0101 4.231,-2.1155 3.8301,-1.9151 4.2329,-2.1166 4.0544,-2.0272 4.0446,-2.0223 4.2245,-2.1124 3.891,-1.9455 3.9849,-1.9925 4.3998,-2.2 3.9836,-1.9919 4.074,-2.037 4.1432,-2.0717 3.8084,-1.9042 4.0596,-2.0299 4.0287,-2.0144 4.3095,-2.1548 3.8029,-1.9015 4.3878,-2.1939 3.9596,-1.9799 3.9179,-1.959 4.2129,-2.1065 4.23,-2.1151 3.8487,-1.9244 4.0871,-2.0436 3.9886,-1.9944 4.3237,-2.1619 3.7412,-1.8706 4.2969,-2.1485 4.0394,-2.0198 4.0003,-2.0002 4.0035,-2.0018 4.0833,-2.0417 4.3282,-2.1642 3.9686,-1.9843 3.9175,-1.9588 4.1877,-2.0939 4.1786,-2.0894 3.7506,-1.8753 4.4428,-2.2215 3.7175,-1.8588 4.3481,-2.1741 4.1498,-2.075 3.7053,-1.8527 4.167,-2.0835 4.1946,-2.0974 4.1747,-2.0874 3.8704,-1.9353 4.0076,-2.0038 4.1447,-2.0724 4.1315,-2.0658 4.2496,-2.1249 3.7431,-1.8716 4.2139,-2.107 4.2311,-2.1156 4.0775,-2.0388 3.7027,-1.8514 4.4029,-2.2016 3.7299,-1.8649 4.3387,-2.1695 3.8406,-1.9203 4.2136,-2.1069 4.0124,-2.0062 4.1865,-2.0933 3.8445,-1.9223 4.1468,-2.0735 4.3074,-2.1538 3.7496,-1.8748 4.0497,-2.0249 4.1837,-2.0919 4.0929,-2.0465 3.9601,-1.9801 4.397,-2.1986 3.951,-1.9755 4.2184,-2.1093 3.8226,-1.9114 4.1791,-2.0895 3.9322,-1.9662 4.1102,-2.0552 4.0185,-2.0093 4.2071,-2.1036 4.0518,-2.0259 4.1436,-2.0719 4.1093,-2.0547 3.776,-1.8881 4.3278,-2.1639 3.8708,-1.9355 4.127,-2.0636 3.9502,-1.9751 4.3861,-2.1931 3.7981,-1.8991 4.3108,-2.1555 3.9289,-1.9644 4.2975,-2.1489 3.708,-1.854 4.2231,-2.1116 4.0792,-2.0397 4.0766,-2.0384 4.0616,-2.0308 3.9019,-1.951 4.2181,-2.1091 4.0201,-2.0101 4.231,-2.1156 3.8301,-1.9151 4.2329,-2.1165 4.0544,-2.0273 4.0446,-2.0223 4.2245,-2.1123 3.891,-1.9456 3.985,-1.9925 4.3997,-2.1999 3.9836,-1.9919 4.0741,-2.0371 4.1431,-2.0717 3.8084,-1.9042 4.0596,-2.0298 4.0288,-2.0144 4.3094,-2.1549 3.8029,-1.9015 4.3879,-2.1939 3.9595,-1.9799 3.9179,-1.959 4.2129,-2.1065 4.23,-2.115 3.8487,-1.9244 4.0871,-2.0436 3.9886,-1.9944 4.3237,-2.1619 3.7412,-1.8707 4.297,-2.1485 4.0393,-2.0197 4.0003,-2.0002 4.0035,-2.0018 4.0833,-2.0418 4.3283,-2.1641 3.9686,-1.9844 3.9174,-1.9588 4.1877,-2.0939 4.1787,-2.0894 3.9397,-1.9699"
         style="fill:none"
         clip-path="url(#clipPath13)"
         id="path89" />
    </g>
    <g
       transform="translate(6,5)"
       style="font-family:'Times New Roman';color-interpolation:linearRGB;fill:#f95d6a;stroke:#f95d6a;stroke-width:1.5;stroke-linecap:butt;stroke-linejoin:round;color-rendering:optimizeQuality;image-rendering:optimizeQuality;text-rendering:optimizeLegibility"
       id="g95">
      <path
         d="m 45,409 4.977,-2.1293 4.3305,-1.8527 4.8701,-2.0836 4.9024,-2.0973 4.879,-2.0874 4.5236,-1.9353 4.6838,-2.0039 4.844,-2.0724 4.8285,-2.0657 4.9667,-2.1249 4.3747,-1.8716 4.9249,-2.107 4.945,-2.1156 4.7655,-2.0388 4.3276,-1.8515 5.1458,-2.2015 4.3592,-1.865 5.0708,-2.1694 4.4885,-1.9203 4.9246,-2.1069 4.6894,-2.0062 4.8929,-2.0933 4.4932,-1.9223 4.8465,-2.0735 5.0342,-2.1538 4.3823,-1.8748 4.7329,-2.0249 4.8897,-2.0919 4.7835,-2.0465 4.6283,-1.9801 5.139,-2.1986 4.6175,-1.9755 4.9303,-2.1094 4.4675,-1.9113 4.8842,-2.0896 4.5957,-1.9661 4.8038,-2.0552 4.6965,-2.0093 4.9169,-2.1036 4.7356,-2.026 4.8427,-2.0718 4.8027,-2.0547 4.4132,-1.8881 5.058,-2.1639 4.5239,-1.9355 4.8234,-2.0636 4.6167,-1.9751 5.1261,-2.1931 4.4389,-1.8991 5.0383,-2.1555 4.5917,-1.9645 5.0227,-2.1488 4.3337,-1.8541 4.9356,-2.1116 4.7676,-2.0396 4.7644,-2.0384 4.7468,-2.0308 4.5604,-1.9511 4.9298,-2.1091 4.6984,-2.0101 4.9449,-2.1155 4.4763,-1.9151 4.9472,-2.1166 4.7386,-2.0272 4.7269,-2.0223 4.9374,-2.1124 4.5475,-1.9455 4.6572,-1.9925 5.1422,-2.2 4.6558,-1.9919 4.7614,-2.037 4.8423,-2.0717 4.451,-1.9042 4.7446,-2.0299 4.7085,-2.0144 5.0366,-2.1548 4.4446,-1.9015 5.1281,-2.1939 4.6277,-1.9799 4.579,-1.959 4.9238,-2.1065 4.9437,-2.1151 4.498,-1.9244 4.7768,-2.0436 4.6616,-1.9944 5.0532,-2.1619 4.3725,-1.8706 5.022,-2.1485 4.7209,-2.0198 4.6752,-2.0002 4.679,-2.0018 4.7723,-2.0417 5.0586,-2.1642 4.6382,-1.9843 4.5785,-1.9588 4.8943,-2.0939 4.8837,-2.0894 4.3834,-1.8753 5.1924,-2.2215 4.3448,-1.8588 5.0817,-2.1741 4.8501,-2.075 4.3304,-1.8527 4.8701,-2.0835 4.9024,-2.0974 4.8791,-2.0874 4.5235,-1.9353 4.6839,-2.0038 4.8439,-2.0724 4.8285,-2.0658 4.9667,-2.1249 4.3747,-1.8716 4.9249,-2.107 4.945,-2.1156 4.7655,-2.0388 4.3276,-1.8514 5.1458,-2.2016 4.3592,-1.8649 5.0708,-2.1695 4.4885,-1.9203 4.9247,-2.1069 4.6893,-2.0062 4.8929,-2.0933 4.4932,-1.9223 4.8465,-2.0735 5.0342,-2.1538 4.3823,-1.8748 4.7329,-2.0249 4.8897,-2.0919 4.7835,-2.0465 4.6283,-1.9801 5.139,-2.1986 4.6175,-1.9755 4.9303,-2.1093 4.4675,-1.9114 4.8843,-2.0895 4.5956,-1.9662 4.8038,-2.0552 4.6966,-2.0093 4.9168,-2.1036 4.7356,-2.0259 4.8427,-2.0719 4.8027,-2.0547 4.4132,-1.8881 5.058,-2.1639 4.5239,-1.9355 4.8234,-2.0636 4.6167,-1.9751 5.1262,-2.1931 4.4389,-1.8991 5.0382,-2.1555 4.5917,-1.9644 5.0227,-2.1489 4.3337,-1.854 4.9356,-2.1116 4.7675,-2.0397 4.7645,-2.0384 4.7469,-2.0308 4.5603,-1.951 4.9298,-2.1091 4.6984,-2.0101 4.9449,-2.1156 4.4763,-1.9151 4.9472,-2.1165 4.7385,-2.0273 4.727,-2.0223 4.9374,-2.1123 4.5475,-1.9456 4.6573,-1.9925 5.1421,-2.1999 4.6558,-1.9919 4.7615,-2.0371 4.8422,-2.0717 4.451,-1.9042 4.7446,-2.0298 4.7085,-2.0144 5.0366,-2.1549 4.4446,-1.9015 5.1281,-2.1939 4.6278,-1.9799 4.5789,-1.959 4.9237,-2.1065 4.9438,-2.115 4.4981,-1.9244 4.7767,-2.0436 4.6616,-1.9944 5.0533,-2.1619 4.3725,-1.8707 5.0219,-2.1485 4.7209,-2.0197 4.6752,-2.0002 4.6791,-2.0018 4.7722,-2.0418 5.0586,-2.1641 4.6382,-1.9844 4.5784,-1.9588 4.8944,-2.0939 4.8837,-2.0894 4.6045,-1.9699"
         style="fill:none"
         clip-path="url(#clipPath13)"
         id="path93" />
    </g>
    <g
       transform="translate(6,5)"
       style="font-family:'Times New Roman';color-interpolation:linearRGB;fill:#ffa600;stroke:#ffa600;stroke-width:1.5;stroke-linecap:butt;stroke-linejoin:round;color-rendering:optimizeQuality;image-rendering:optimizeQuality;text-rendering:optimizeLegibility"
       id="g99">
      <path
         d="m 45,409 5.0788,-2.1293 4.4191,-1.8527 4.9697,-2.0836 5.0027,-2.0973 4.9789,-2.0874 4.616,-1.9353 4.7797,-2.0039 4.9431,-2.0724 4.9273,-2.0657 5.0683,-2.1249 4.4641,-1.8716 5.0256,-2.107 5.0463,-2.1156 4.863,-2.0388 4.416,-1.8515 5.2511,-2.2015 4.4484,-1.865 5.1745,-2.1694 4.5803,-1.9203 5.0254,-2.1069 4.7853,-2.0062 4.993,-2.0933 4.5851,-1.9223 4.9457,-2.0735 5.1371,-2.1538 4.4719,-1.8748 4.8298,-2.0249 4.9897,-2.0919 4.8814,-2.0465 4.723,-1.9801 5.244,-2.1986 4.7121,-1.9755 5.0311,-2.1094 4.5589,-1.9113 4.9841,-2.0896 4.6897,-1.9661 4.9021,-2.0552 4.7926,-2.0093 5.0175,-2.1036 4.8324,-2.026 4.9418,-2.0718 4.901,-2.0547 4.5034,-1.8881 5.1614,-2.1639 4.6165,-1.9355 4.9221,-2.0636 4.7111,-1.9751 5.2311,-2.1931 4.5297,-1.8991 5.1412,-2.1555 4.6857,-1.9645 5.1254,-2.1488 4.4224,-1.8541 5.0366,-2.1116 4.865,-2.0396 4.8619,-2.0384 4.8441,-2.0308 4.6535,-1.9511 5.0307,-2.1091 4.7945,-2.0101 5.0461,-2.1155 4.5679,-1.9151 5.0483,-2.1166 4.8355,-2.0272 4.8237,-2.0223 5.0383,-2.1124 4.6406,-1.9455 4.7525,-1.9925 5.2474,-2.2 4.751,-1.9919 4.8588,-2.037 4.9414,-2.0717 4.542,-1.9042 4.8417,-2.0299 4.8047,-2.0144 5.1397,-2.1548 4.5355,-1.9015 5.233,-2.1939 4.7225,-1.9799 4.6726,-1.959 5.0245,-2.1065 5.0448,-2.1151 4.5901,-1.9244 4.8744,-2.0436 4.757,-1.9944 5.1566,-2.1619 4.462,-1.8706 5.1246,-2.1485 4.8175,-2.0198 4.7709,-2.0002 4.7747,-2.0018 4.87,-2.0417 5.162,-2.1642 4.7331,-1.9843 4.6721,-1.9588 4.9945,-2.0939 4.9835,-2.0894 4.4732,-1.8753 5.2985,-2.2215 4.4338,-1.8588 5.1856,-2.1741 4.9492,-2.075 4.4191,-1.8527 4.9697,-2.0835 5.0027,-2.0974 4.9789,-2.0874 4.616,-1.9353 4.7797,-2.0038 4.9431,-2.0724 4.9273,-2.0658 5.0683,-2.1249 4.4641,-1.8716 5.0256,-2.107 5.0463,-2.1156 4.8629,-2.0388 4.4161,-1.8514 5.2511,-2.2016 4.4484,-1.8649 5.1745,-2.1695 4.5804,-1.9203 5.0254,-2.1069 4.7852,-2.0062 4.993,-2.0933 4.5852,-1.9223 4.9456,-2.0735 5.1372,-2.1538 4.4719,-1.8748 4.8298,-2.0249 4.9896,-2.0919 4.8813,-2.0465 4.7231,-1.9801 5.2441,-2.1986 4.712,-1.9755 5.0311,-2.1093 4.559,-1.9114 4.9841,-2.0895 4.6896,-1.9662 4.9021,-2.0552 4.7926,-2.0093 5.0175,-2.1036 4.8324,-2.0259 4.9418,-2.0719 4.901,-2.0547 4.5035,-1.8881 5.1613,-2.1639 4.6165,-1.9355 4.9222,-2.0636 4.711,-1.9751 5.231,-2.1931 4.5298,-1.8991 5.1413,-2.1555 4.6856,-1.9644 5.1255,-2.1489 4.4223,-1.854 5.0366,-2.1116 4.865,-2.0397 4.8619,-2.0384 4.8441,-2.0308 4.6535,-1.951 5.0307,-2.1091 4.7945,-2.0101 5.0461,-2.1156 4.5679,-1.9151 5.0484,-2.1165 4.8354,-2.0273 4.8237,-2.0223 5.0383,-2.1123 4.6406,-1.9456 4.7525,-1.9925 5.2474,-2.1999 4.751,-1.9919 4.8588,-2.0371 4.9414,-2.0717 4.542,-1.9042 4.8416,-2.0298 4.8049,-2.0144 5.1396,-2.1549 4.5355,-1.9015 5.2331,-2.1939 4.7224,-1.9799 4.6726,-1.959 5.0245,-2.1065 5.0448,-2.115 4.5901,-1.9244 4.8745,-2.0436 4.757,-1.9944 5.1565,-2.1619 4.462,-1.8707 5.1247,-2.1485 4.8174,-2.0197 4.7709,-2.0002 4.7747,-2.0018 4.87,-2.0418 5.162,-2.1641 4.733,-1.9844 4.6722,-1.9588 4.9945,-2.0939 4.9836,-2.0894 4.6986,-1.9699"
         style="fill:none"
         clip-path="url(#clipPath13)"
         id="path97" />
    </g>
    <g
       transform="translate(6,5)"
       style="font-family:'Times New Roman';color-interpolation:linearRGB;stroke-linecap:butt;stroke-linejoin:round;color-rendering:optimizeQuality;image-rendering:optimizeQuality;text-rendering:optimizeLegibility"
       id="g103">
      <path
         d="m 45,411 h 965.999"
         style="fill:none"
         clip-path="url(#clipPath12)"
         id="path101" />
    </g>
    <g
       transform="translate(6,5)"
       style="font-family:'Times New Roman';color-interpolation:linearRGB;stroke-linecap:butt;stroke-linejoin:round;color-rendering:optimizeQuality;image-rendering:optimizeQuality;text-rendering:optimizeLegibility"
       id="g107">
      <path
         d="m 529.375,441.6875 -0.4844,1.7187 h 0.9844 l -0.0938,0.4063 h -1 l -1.0937,3.7344 q -0.1719,0.6093 -0.1719,0.7812 0,0.1094 0.0469,0.1719 0.0469,0.0625 0.125,0.0625 0.1563,0 0.4219,-0.2344 0.1406,-0.125 0.6718,-0.7812 L 529,447.7188 q -0.5938,0.8437 -1.1094,1.1874 -0.3594,0.25 -0.7187,0.25 -0.2813,0 -0.4688,-0.1718 -0.1719,-0.1875 -0.1719,-0.4532 0,-0.3437 0.2032,-1.0468 l 1.0625,-3.6719 h -0.9531 l 0.0624,-0.25 q 0.7032,-0.1875 1.1563,-0.5625 0.4687,-0.3906 1.0313,-1.3125 z"
         style="stroke:none"
         clip-path="url(#clipPath14)"
         id="path105" />
    </g>
    <g
       transform="translate(6,5)"
       style="font-family:'Times New Roman';color-interpolation:linearRGB;color-rendering:optimizeQuality;image-rendering:optimizeQuality;text-rendering:optimizeLegibility"
       id="g113">
      <path
         d="m 45,411 v 7.58"
         style="fill:none"
         clip-path="url(#clipPath12)"
         id="path109" />
      <path
         d="m 48.5469,436.0938 q 0,-1.7032 0.5,-2.9219 0.5156,-1.2344 1.375,-1.8281 0.6562,-0.4844 1.3593,-0.4844 1.1407,0 2.0469,1.1718 1.1407,1.4376 1.1407,3.9063 0,1.7344 -0.5,2.9375 -0.5,1.2031 -1.2813,1.75 -0.7656,0.5469 -1.4844,0.5469 -1.4219,0 -2.3593,-1.6719 -0.7969,-1.4219 -0.7969,-3.4062 z m 1.4375,0.1874 q 0,2.0469 0.5,3.3438 0.4218,1.0938 1.25,1.0938 0.3906,0 0.8125,-0.3594 0.4219,-0.3594 0.6406,-1.1875 0.3437,-1.2657 0.3437,-3.5625 0,-1.6875 -0.3593,-2.8282 -0.25,-0.8437 -0.6719,-1.1874 -0.2969,-0.25 -0.7344,-0.25 -0.4844,0 -0.875,0.4531 -0.5312,0.6093 -0.7187,1.9219 -0.1875,1.2968 -0.1875,2.5624 z"
         style="stroke:none"
         transform="translate(-6,-5)"
         clip-path="url(#clipPath15)"
         id="path111" />
    </g>
    <g
       transform="translate(6,5)"
       style="font-family:'Times New Roman';color-interpolation:linearRGB;color-rendering:optimizeQuality;image-rendering:optimizeQuality;text-rendering:optimizeLegibility"
       id="g119">
      <path
         d="m 174.7314,411 v 7.58"
         style="fill:none"
         clip-path="url(#clipPath12)"
         id="path115" />
      <path
         d="m 170.7656,432.0469 2.4063,-1.1875 h 0.25 v 8.3906 q 0,0.8281 0.0625,1.0469 0.0781,0.2031 0.2968,0.3125 0.2188,0.1094 0.8907,0.125 V 441 h -3.7344 v -0.2656 q 0.7031,-0.0156 0.9063,-0.125 0.2031,-0.1094 0.2812,-0.2813 0.0781,-0.1875 0.0781,-1.0781 v -5.3594 q 0,-1.0937 -0.0625,-1.3906 -0.0625,-0.2344 -0.2031,-0.3438 -0.125,-0.1093 -0.3125,-0.1093 -0.2812,0 -0.75,0.2187 z m 6.2813,4.0469 q 0,-1.7032 0.5,-2.9219 0.5156,-1.2344 1.375,-1.8281 0.6562,-0.4844 1.3593,-0.4844 1.1407,0 2.0469,1.1718 1.1407,1.4376 1.1407,3.9063 0,1.7344 -0.5,2.9375 -0.5,1.2031 -1.2813,1.75 -0.7656,0.5469 -1.4844,0.5469 -1.4219,0 -2.3593,-1.6719 -0.7969,-1.4219 -0.7969,-3.4062 z m 1.4375,0.1874 q 0,2.0469 0.5,3.3438 0.4218,1.0938 1.25,1.0938 0.3906,0 0.8125,-0.3594 0.4219,-0.3594 0.6406,-1.1875 0.3437,-1.2657 0.3437,-3.5625 0,-1.6875 -0.3593,-2.8282 -0.25,-0.8437 -0.6719,-1.1874 -0.2969,-0.25 -0.7344,-0.25 -0.4844,0 -0.875,0.4531 -0.5312,0.6093 -0.7187,1.9219 -0.1875,1.2968 -0.1875,2.5624 z m 6.0625,-0.1874 q 0,-1.7032 0.5,-2.9219 0.5156,-1.2344 1.375,-1.8281 0.6562,-0.4844 1.3593,-0.4844 1.1407,0 2.0469,1.1718 1.1407,1.4376 1.1407,3.9063 0,1.7344 -0.5,2.9375 -0.5,1.2031 -1.2813,1.75 -0.7656,0.5469 -1.4844,0.5469 -1.4219,0 -2.3593,-1.6719 -0.7969,-1.4219 -0.7969,-3.4062 z m 1.4375,0.1874 q 0,2.0469 0.5,3.3438 0.4218,1.0938 1.25,1.0938 0.3906,0 0.8125,-0.3594 0.4219,-0.3594 0.6406,-1.1875 0.3437,-1.2657 0.3437,-3.5625 0,-1.6875 -0.3593,-2.8282 -0.25,-0.8437 -0.6719,-1.1874 -0.2969,-0.25 -0.7344,-0.25 -0.4844,0 -0.875,0.4531 -0.5312,0.6093 -0.7187,1.9219 -0.1875,1.2968 -0.1875,2.5624 z"
         style="stroke:none"
         transform="translate(-6,-5)"
         clip-path="url(#clipPath15)"
         id="path117" />
    </g>
    <g
       transform="translate(6,5)"
       style="font-family:'Times New Roman';color-interpolation:linearRGB;color-rendering:optimizeQuality;image-rendering:optimizeQuality;text-rendering:optimizeLegibility"
       id="g125">
      <path
         d="m 304.4629,411 v 7.58"
         style="fill:none"
         clip-path="url(#clipPath12)"
         id="path121" />
      <path
         d="M 305.875,439.0938 305.1875,441 h -5.8594 v -0.2656 q 2.5781,-2.3594 3.625,-3.8594 1.0625,-1.5 1.0625,-2.7344 0,-0.9375 -0.5781,-1.5468 -0.5781,-0.6094 -1.3906,-0.6094 -0.7188,0 -1.3125,0.4375 -0.5782,0.4219 -0.8594,1.25 h -0.2656 q 0.1875,-1.3594 0.9375,-2.0781 0.7656,-0.7344 1.8906,-0.7344 1.2187,0 2.0156,0.7812 0.8125,0.7813 0.8125,1.8282 0,0.75 -0.3437,1.5156 -0.5469,1.1875 -1.7657,2.5 -1.8124,2 -2.2812,2.4062 h 2.5938 q 0.7968,0 1.1093,-0.0468 0.3281,-0.0626 0.5781,-0.2344 0.2657,-0.1875 0.4532,-0.5156 z m 1.1719,-3 q 0,-1.7032 0.5,-2.9219 0.5156,-1.2344 1.375,-1.8281 0.6562,-0.4844 1.3593,-0.4844 1.1407,0 2.0469,1.1718 1.1407,1.4376 1.1407,3.9063 0,1.7344 -0.5,2.9375 -0.5,1.2031 -1.2813,1.75 -0.7656,0.5469 -1.4844,0.5469 -1.4219,0 -2.3593,-1.6719 -0.7969,-1.4219 -0.7969,-3.4062 z m 1.4375,0.1874 q 0,2.0469 0.5,3.3438 0.4218,1.0938 1.25,1.0938 0.3906,0 0.8125,-0.3594 0.4219,-0.3594 0.6406,-1.1875 0.3437,-1.2657 0.3437,-3.5625 0,-1.6875 -0.3593,-2.8282 -0.25,-0.8437 -0.6719,-1.1874 -0.2969,-0.25 -0.7344,-0.25 -0.4844,0 -0.875,0.4531 -0.5312,0.6093 -0.7187,1.9219 -0.1875,1.2968 -0.1875,2.5624 z m 6.0625,-0.1874 q 0,-1.7032 0.5,-2.9219 0.5156,-1.2344 1.375,-1.8281 0.6562,-0.4844 1.3593,-0.4844 1.1407,0 2.0469,1.1718 1.1407,1.4376 1.1407,3.9063 0,1.7344 -0.5,2.9375 -0.5,1.2031 -1.2813,1.75 -0.7656,0.5469 -1.4844,0.5469 -1.4219,0 -2.3593,-1.6719 -0.7969,-1.4219 -0.7969,-3.4062 z m 1.4375,0.1874 q 0,2.0469 0.5,3.3438 0.4218,1.0938 1.25,1.0938 0.3906,0 0.8125,-0.3594 0.4219,-0.3594 0.6406,-1.1875 0.3437,-1.2657 0.3437,-3.5625 0,-1.6875 -0.3593,-2.8282 -0.25,-0.8437 -0.6719,-1.1874 -0.2969,-0.25 -0.7344,-0.25 -0.4844,0 -0.875,0.4531 -0.5312,0.6093 -0.7187,1.9219 -0.1875,1.2968 -0.1875,2.5624 z"
         style="stroke:none"
         transform="translate(-6,-5)"
         clip-path="url(#clipPath15)"
         id="path123" />
    </g>
    <g
       transform="translate(6,5)"
       style="font-family:'Times New Roman';color-interpolation:linearRGB;color-rendering:optimizeQuality;image-rendering:optimizeQuality;text-rendering:optimizeLegibility"
       id="g131">
      <path
         d="m 434.1943,411 v 7.58"
         style="fill:none"
         clip-path="url(#clipPath12)"
         id="path127" />
      <path
         d="m 429.7656,432.9531 q 0.4219,-1 1.0625,-1.5469 0.6563,-0.5468 1.625,-0.5468 1.1875,0 1.8281,0.7812 0.4844,0.5782 0.4844,1.2344 0,1.0938 -1.3594,2.25 0.9063,0.3594 1.375,1.0312 0.4688,0.6563 0.4688,1.5626 0,1.2812 -0.8125,2.2187 -1.0781,1.2344 -3.0937,1.2344 -1.0157,0 -1.375,-0.25 -0.3594,-0.25 -0.3594,-0.5313 0,-0.2187 0.1718,-0.375 0.1719,-0.1562 0.4063,-0.1562 0.1875,0 0.375,0.0625 0.125,0.0312 0.5625,0.2656 0.4531,0.2187 0.6094,0.2656 0.2812,0.0781 0.5781,0.0781 0.75,0 1.2969,-0.5781 0.5625,-0.5781 0.5625,-1.3593 0,-0.5782 -0.25,-1.125 -0.2031,-0.4219 -0.4219,-0.625 -0.3125,-0.2969 -0.875,-0.5313 -0.5469,-0.2344 -1.1094,-0.2344 h -0.2344 v -0.2343 q 0.5782,-0.0626 1.1563,-0.4063 0.5781,-0.3437 0.8437,-0.8281 0.2657,-0.4844 0.2657,-1.0625 0,-0.75 -0.4688,-1.2188 -0.4687,-0.4687 -1.1719,-0.4687 -1.1406,0 -1.9062,1.2187 z m 7.2813,3.1407 q 0,-1.7032 0.5,-2.9219 0.5156,-1.2344 1.375,-1.8281 0.6562,-0.4844 1.3593,-0.4844 1.1407,0 2.0469,1.1718 1.1407,1.4376 1.1407,3.9063 0,1.7344 -0.5,2.9375 -0.5,1.2031 -1.2813,1.75 -0.7656,0.5469 -1.4844,0.5469 -1.4219,0 -2.3593,-1.6719 -0.7969,-1.4219 -0.7969,-3.4062 z m 1.4375,0.1874 q 0,2.0469 0.5,3.3438 0.4218,1.0938 1.25,1.0938 0.3906,0 0.8125,-0.3594 0.4219,-0.3594 0.6406,-1.1875 0.3437,-1.2657 0.3437,-3.5625 0,-1.6875 -0.3593,-2.8282 -0.25,-0.8437 -0.6719,-1.1874 -0.2969,-0.25 -0.7344,-0.25 -0.4844,0 -0.875,0.4531 -0.5312,0.6093 -0.7187,1.9219 -0.1875,1.2968 -0.1875,2.5624 z m 6.0625,-0.1874 q 0,-1.7032 0.5,-2.9219 0.5156,-1.2344 1.375,-1.8281 0.6562,-0.4844 1.3593,-0.4844 1.1407,0 2.0469,1.1718 1.1407,1.4376 1.1407,3.9063 0,1.7344 -0.5,2.9375 -0.5,1.2031 -1.2813,1.75 -0.7656,0.5469 -1.4844,0.5469 -1.4219,0 -2.3593,-1.6719 -0.7969,-1.4219 -0.7969,-3.4062 z m 1.4375,0.1874 q 0,2.0469 0.5,3.3438 0.4218,1.0938 1.25,1.0938 0.3906,0 0.8125,-0.3594 0.4219,-0.3594 0.6406,-1.1875 0.3437,-1.2657 0.3437,-3.5625 0,-1.6875 -0.3593,-2.8282 -0.25,-0.8437 -0.6719,-1.1874 -0.2969,-0.25 -0.7344,-0.25 -0.4844,0 -0.875,0.4531 -0.5312,0.6093 -0.7187,1.9219 -0.1875,1.2968 -0.1875,2.5624 z"
         style="stroke:none"
         transform="translate(-6,-5)"
         clip-path="url(#clipPath15)"
         id="path129" />
    </g>
    <g
       transform="translate(6,5)"
       style="font-family:'Times New Roman';color-interpolation:linearRGB;color-rendering:optimizeQuality;image-rendering:optimizeQuality;text-rendering:optimizeLegibility"
       id="g137">
      <path
         d="m 563.9257,411 v 7.58"
         style="fill:none"
         clip-path="url(#clipPath12)"
         id="path133" />
      <path
         d="m 564.9844,437.3438 v 1.0312 h -1.3438 V 441 h -1.2031 v -2.625 h -4.2031 v -0.9375 l 4.6094,-6.5781 h 0.7968 v 6.4844 z m -2.5469,0 v -4.9376 l -3.4844,4.9376 z m 3.6094,-1.25 q 0,-1.7032 0.5,-2.9219 0.5156,-1.2344 1.375,-1.8281 0.6562,-0.4844 1.3593,-0.4844 1.1407,0 2.0469,1.1718 1.1407,1.4376 1.1407,3.9063 0,1.7344 -0.5,2.9375 -0.5,1.2031 -1.2813,1.75 -0.7656,0.5469 -1.4844,0.5469 -1.4219,0 -2.3593,-1.6719 -0.7969,-1.4219 -0.7969,-3.4062 z m 1.4375,0.1874 q 0,2.0469 0.5,3.3438 0.4218,1.0938 1.25,1.0938 0.3906,0 0.8125,-0.3594 0.4219,-0.3594 0.6406,-1.1875 0.3437,-1.2657 0.3437,-3.5625 0,-1.6875 -0.3593,-2.8282 -0.25,-0.8437 -0.6719,-1.1874 -0.2969,-0.25 -0.7344,-0.25 -0.4844,0 -0.875,0.4531 -0.5312,0.6093 -0.7187,1.9219 -0.1875,1.2968 -0.1875,2.5624 z m 6.0625,-0.1874 q 0,-1.7032 0.5,-2.9219 0.5156,-1.2344 1.375,-1.8281 0.6562,-0.4844 1.3593,-0.4844 1.1407,0 2.0469,1.1718 1.1407,1.4376 1.1407,3.9063 0,1.7344 -0.5,2.9375 -0.5,1.2031 -1.2813,1.75 -0.7656,0.5469 -1.4844,0.5469 -1.4219,0 -2.3593,-1.6719 -0.7969,-1.4219 -0.7969,-3.4062 z m 1.4375,0.1874 q 0,2.0469 0.5,3.3438 0.4218,1.0938 1.25,1.0938 0.3906,0 0.8125,-0.3594 0.4219,-0.3594 0.6406,-1.1875 0.3437,-1.2657 0.3437,-3.5625 0,-1.6875 -0.3593,-2.8282 -0.25,-0.8437 -0.6719,-1.1874 -0.2969,-0.25 -0.7344,-0.25 -0.4844,0 -0.875,0.4531 -0.5312,0.6093 -0.7187,1.9219 -0.1875,1.2968 -0.1875,2.5624 z"
         style="stroke:none"
         transform="translate(-6,-5)"
         clip-path="url(#clipPath15)"
         id="path135" />
    </g>
    <g
       transform="translate(6,5)"
       style="font-family:'Times New Roman';color-interpolation:linearRGB;color-rendering:optimizeQuality;image-rendering:optimizeQuality;text-rendering:optimizeLegibility"
       id="g143">
      <path
         d="m 693.6572,411 v 7.58"
         style="fill:none"
         clip-path="url(#clipPath12)"
         id="path139" />
      <path
         d="m 694.5156,431.0625 -0.5781,1.25 h -2.9844 l -0.6562,1.3281 q 1.9375,0.2969 3.0781,1.4532 0.9688,0.9843 0.9688,2.3437 0,0.7813 -0.3126,1.4531 -0.3124,0.6563 -0.7968,1.125 -0.4844,0.4688 -1.0782,0.75 -0.8437,0.4063 -1.7343,0.4063 -0.8907,0 -1.2969,-0.2969 -0.4062,-0.3125 -0.4062,-0.6719 0,-0.2031 0.1718,-0.3593 0.1719,-0.1563 0.4219,-0.1563 0.1875,0 0.3281,0.0625 0.1406,0.0469 0.4844,0.2969 0.5625,0.375 1.125,0.375 0.8594,0 1.5,-0.6407 0.6406,-0.6562 0.6406,-1.5937 0,-0.8906 -0.5781,-1.6719 -0.5781,-0.7812 -1.5937,-1.2031 -0.7969,-0.3281 -2.1719,-0.3906 l 1.9062,-3.8594 z m 1.5313,5.0313 q 0,-1.7032 0.5,-2.9219 0.5156,-1.2344 1.375,-1.8281 0.6562,-0.4844 1.3593,-0.4844 1.1407,0 2.0469,1.1718 1.1407,1.4376 1.1407,3.9063 0,1.7344 -0.5,2.9375 -0.5,1.2031 -1.2813,1.75 -0.7656,0.5469 -1.4844,0.5469 -1.4219,0 -2.3593,-1.6719 -0.7969,-1.4219 -0.7969,-3.4062 z m 1.4375,0.1874 q 0,2.0469 0.5,3.3438 0.4218,1.0938 1.25,1.0938 0.3906,0 0.8125,-0.3594 0.4219,-0.3594 0.6406,-1.1875 0.3437,-1.2657 0.3437,-3.5625 0,-1.6875 -0.3593,-2.8282 -0.25,-0.8437 -0.6719,-1.1874 -0.2969,-0.25 -0.7344,-0.25 -0.4844,0 -0.875,0.4531 -0.5312,0.6093 -0.7187,1.9219 -0.1875,1.2968 -0.1875,2.5624 z m 6.0625,-0.1874 q 0,-1.7032 0.5,-2.9219 0.5156,-1.2344 1.375,-1.8281 0.6562,-0.4844 1.3593,-0.4844 1.1407,0 2.0469,1.1718 1.1407,1.4376 1.1407,3.9063 0,1.7344 -0.5,2.9375 -0.5,1.2031 -1.2813,1.75 -0.7656,0.5469 -1.4844,0.5469 -1.4219,0 -2.3593,-1.6719 -0.7969,-1.4219 -0.7969,-3.4062 z m 1.4375,0.1874 q 0,2.0469 0.5,3.3438 0.4218,1.0938 1.25,1.0938 0.3906,0 0.8125,-0.3594 0.4219,-0.3594 0.6406,-1.1875 0.3437,-1.2657 0.3437,-3.5625 0,-1.6875 -0.3593,-2.8282 -0.25,-0.8437 -0.6719,-1.1874 -0.2969,-0.25 -0.7344,-0.25 -0.4844,0 -0.875,0.4531 -0.5312,0.6093 -0.7187,1.9219 -0.1875,1.2968 -0.1875,2.5624 z"
         style="stroke:none"
         transform="translate(-6,-5)"
         clip-path="url(#clipPath15)"
         id="path141" />
    </g>
    <g
       transform="translate(6,5)"
       style="font-family:'Times New Roman';color-interpolation:linearRGB;color-rendering:optimizeQuality;image-rendering:optimizeQuality;text-rendering:optimizeLegibility"
       id="g149">
      <path
         d="m 823.3885,411 v 7.58"
         style="fill:none"
         clip-path="url(#clipPath12)"
         id="path145" />
      <path
         d="m 824.7188,430.8594 v 0.2812 q -0.9688,0.0938 -1.5782,0.3906 -0.6094,0.2813 -1.2031,0.875 -0.5937,0.5938 -0.9844,1.3282 -0.3906,0.7187 -0.6562,1.7187 1.0469,-0.7187 2.1093,-0.7187 1.0157,0 1.7657,0.8281 0.75,0.8125 0.75,2.0937 0,1.25 -0.75,2.2813 -0.9063,1.2344 -2.4063,1.2344 -1.0156,0 -1.7344,-0.6719 -1.3906,-1.3125 -1.3906,-3.3906 0,-1.3438 0.5313,-2.5313 0.5469,-1.2031 1.5312,-2.1406 1,-0.9375 1.9063,-1.25 0.9062,-0.3281 1.6875,-0.3281 z m -4.5469,5.125 q -0.1407,1 -0.1407,1.6094 0,0.7031 0.2657,1.5312 0.2656,0.8125 0.7656,1.2969 0.375,0.3437 0.9219,0.3437 0.625,0 1.125,-0.5937 0.5156,-0.6094 0.5156,-1.7188 0,-1.25 -0.5,-2.1562 -0.5,-0.9219 -1.4219,-0.9219 -0.2812,0 -0.5937,0.125 -0.3125,0.1094 -0.9375,0.4844 z m 5.875,0.1094 q 0,-1.7032 0.5,-2.9219 0.5156,-1.2344 1.375,-1.8281 0.6562,-0.4844 1.3593,-0.4844 1.1407,0 2.0469,1.1718 1.1407,1.4376 1.1407,3.9063 0,1.7344 -0.5,2.9375 -0.5,1.2031 -1.2813,1.75 -0.7656,0.5469 -1.4844,0.5469 -1.4219,0 -2.3593,-1.6719 -0.7969,-1.4219 -0.7969,-3.4062 z m 1.4375,0.1874 q 0,2.0469 0.5,3.3438 0.4218,1.0938 1.25,1.0938 0.3906,0 0.8125,-0.3594 0.4219,-0.3594 0.6406,-1.1875 0.3437,-1.2657 0.3437,-3.5625 0,-1.6875 -0.3593,-2.8282 -0.25,-0.8437 -0.6719,-1.1874 -0.2969,-0.25 -0.7344,-0.25 -0.4844,0 -0.875,0.4531 -0.5312,0.6093 -0.7187,1.9219 -0.1875,1.2968 -0.1875,2.5624 z m 6.0625,-0.1874 q 0,-1.7032 0.5,-2.9219 0.5156,-1.2344 1.375,-1.8281 0.6562,-0.4844 1.3593,-0.4844 1.1407,0 2.0469,1.1718 1.1407,1.4376 1.1407,3.9063 0,1.7344 -0.5,2.9375 -0.5,1.2031 -1.2813,1.75 -0.7656,0.5469 -1.4844,0.5469 -1.4219,0 -2.3593,-1.6719 -0.7969,-1.4219 -0.7969,-3.4062 z m 1.4375,0.1874 q 0,2.0469 0.5,3.3438 0.4218,1.0938 1.25,1.0938 0.3906,0 0.8125,-0.3594 0.4219,-0.3594 0.6406,-1.1875 0.3437,-1.2657 0.3437,-3.5625 0,-1.6875 -0.3593,-2.8282 -0.25,-0.8437 -0.6719,-1.1874 -0.2969,-0.25 -0.7344,-0.25 -0.4844,0 -0.875,0.4531 -0.5312,0.6093 -0.7187,1.9219 -0.1875,1.2968 -0.1875,2.5624 z"
         style="stroke:none"
         transform="translate(-6,-5)"
         clip-path="url(#clipPath15)"
         id="path147" />
    </g>
    <g
       transform="translate(6,5)"
       style="font-family:'Times New Roman';color-interpolation:linearRGB;color-rendering:optimizeQuality;image-rendering:optimizeQuality;text-rendering:optimizeLegibility"
       id="g155">
      <path
         d="m 953.12,411 v 7.58"
         style="fill:none"
         clip-path="url(#clipPath12)"
         id="path151" />
      <path
         d="m 949.5156,431.0625 h 5.3125 v 0.2813 l -3.3125,9.8593 h -0.8125 l 2.9688,-8.9375 h -2.7344 q -0.8281,0 -1.1719,0.1875 -0.625,0.3438 -1,1.0469 l -0.2031,-0.0781 z m 6.5313,5.0313 q 0,-1.7032 0.5,-2.9219 0.5156,-1.2344 1.375,-1.8281 0.6562,-0.4844 1.3593,-0.4844 1.1407,0 2.0469,1.1718 1.1407,1.4376 1.1407,3.9063 0,1.7344 -0.5,2.9375 -0.5,1.2031 -1.2813,1.75 -0.7656,0.5469 -1.4844,0.5469 -1.4219,0 -2.3593,-1.6719 -0.7969,-1.4219 -0.7969,-3.4062 z m 1.4375,0.1874 q 0,2.0469 0.5,3.3438 0.4218,1.0938 1.25,1.0938 0.3906,0 0.8125,-0.3594 0.4219,-0.3594 0.6406,-1.1875 0.3437,-1.2657 0.3437,-3.5625 0,-1.6875 -0.3593,-2.8282 -0.25,-0.8437 -0.6719,-1.1874 -0.2969,-0.25 -0.7344,-0.25 -0.4844,0 -0.875,0.4531 -0.5312,0.6093 -0.7187,1.9219 -0.1875,1.2968 -0.1875,2.5624 z m 6.0625,-0.1874 q 0,-1.7032 0.5,-2.9219 0.5156,-1.2344 1.375,-1.8281 0.6562,-0.4844 1.3593,-0.4844 1.1407,0 2.0469,1.1718 1.1407,1.4376 1.1407,3.9063 0,1.7344 -0.5,2.9375 -0.5,1.2031 -1.2813,1.75 -0.7656,0.5469 -1.4844,0.5469 -1.4219,0 -2.3593,-1.6719 -0.7969,-1.4219 -0.7969,-3.4062 z m 1.4375,0.1874 q 0,2.0469 0.5,3.3438 0.4218,1.0938 1.25,1.0938 0.3906,0 0.8125,-0.3594 0.4219,-0.3594 0.6406,-1.1875 0.3437,-1.2657 0.3437,-3.5625 0,-1.6875 -0.3593,-2.8282 -0.25,-0.8437 -0.6719,-1.1874 -0.2969,-0.25 -0.7344,-0.25 -0.4844,0 -0.875,0.4531 -0.5312,0.6093 -0.7187,1.9219 -0.1875,1.2968 -0.1875,2.5624 z"
         style="stroke:none"
         transform="translate(-6,-5)"
         clip-path="url(#clipPath15)"
         id="path153" />
    </g>
    <g
       transform="translate(6,5)"
       style="font-family:'Times New Roman';color-interpolation:linearRGB;color-rendering:optimizeQuality;image-rendering:optimizeQuality;text-rendering:optimizeLegibility"
       id="g159">
      <path
         d="m 109.8657,411 v 3.79"
         style="fill:none"
         clip-path="url(#clipPath12)"
         id="path157" />
    </g>
    <g
       transform="translate(6,5)"
       style="font-family:'Times New Roman';color-interpolation:linearRGB;color-rendering:optimizeQuality;image-rendering:optimizeQuality;text-rendering:optimizeLegibility"
       id="g163">
      <path
         d="m 239.5971,411 v 3.79"
         style="fill:none"
         clip-path="url(#clipPath12)"
         id="path161" />
    </g>
    <g
       transform="translate(6,5)"
       style="font-family:'Times New Roman';color-interpolation:linearRGB;color-rendering:optimizeQuality;image-rendering:optimizeQuality;text-rendering:optimizeLegibility"
       id="g167">
      <path
         d="m 369.3286,411 v 3.79"
         style="fill:none"
         clip-path="url(#clipPath12)"
         id="path165" />
    </g>
    <g
       transform="translate(6,5)"
       style="font-family:'Times New Roman';color-interpolation:linearRGB;color-rendering:optimizeQuality;image-rendering:optimizeQuality;text-rendering:optimizeLegibility"
       id="g171">
      <path
         d="m 499.06,411 v 3.79"
         style="fill:none"
         clip-path="url(#clipPath12)"
         id="path169" />
    </g>
    <g
       transform="translate(6,5)"
       style="font-family:'Times New Roman';color-interpolation:linearRGB;color-rendering:optimizeQuality;image-rendering:optimizeQuality;text-rendering:optimizeLegibility"
       id="g175">
      <path
         d="m 628.7914,411 v 3.79"
         style="fill:none"
         clip-path="url(#clipPath12)"
         id="path173" />
    </g>
    <g
       transform="translate(6,5)"
       style="font-family:'Times New Roman';color-interpolation:linearRGB;color-rendering:optimizeQuality;image-rendering:optimizeQuality;text-rendering:optimizeLegibility"
       id="g179">
      <path
         d="m 758.5228,411 v 3.79"
         style="fill:none"
         clip-path="url(#clipPath12)"
         id="path177" />
    </g>
    <g
       transform="translate(6,5)"
       style="font-family:'Times New Roman';color-interpolation:linearRGB;color-rendering:optimizeQuality;image-rendering:optimizeQuality;text-rendering:optimizeLegibility"
       id="g183">
      <path
         d="m 888.2542,411 v 3.79"
         style="fill:none"
         clip-path="url(#clipPath12)"
         id="path181" />
    </g>
    <g
       transform="translate(6,5)"
       style="font-family:'Times New Roman';color-interpolation:linearRGB;stroke-linecap:butt;stroke-linejoin:round;color-rendering:optimizeQuality;image-rendering:optimizeQuality;text-rendering:optimizeLegibility"
       id="g187">
      <path
         d="M 45,411 V 4.0049"
         style="fill:none"
         clip-path="url(#clipPath12)"
         id="path185" />
    </g>
    <g
       transform="translate(6,5)"
       style="font-family:'Times New Roman';color-interpolation:linearRGB;color-rendering:optimizeQuality;image-rendering:optimizeQuality;text-rendering:optimizeLegibility"
       id="g193">
      <path
         d="M 45,375.2504 H 37.42"
         style="fill:none"
         clip-path="url(#clipPath12)"
         id="path189" />
      <path
         d="m 25.875,381 q -1.1719,-0.9688 -1.5156,-1.5469 -0.3438,-0.5937 -0.3438,-1.2187 0,-0.9688 0.75,-1.6719 0.75,-0.7031 1.9844,-0.7031 1.2031,0 1.9375,0.6562 0.7344,0.6563 0.7344,1.4844 0,0.5625 -0.4063,1.1406 -0.3906,0.5782 -1.6406,1.3594 1.2812,1 1.7031,1.5625 0.5625,0.75 0.5625,1.5781 0,1.0469 -0.7968,1.7969 -0.7969,0.7344 -2.0938,0.7344 -1.4219,0 -2.2188,-0.875 -0.625,-0.7188 -0.625,-1.5625 0,-0.6563 0.4376,-1.2969 0.4531,-0.6563 1.5312,-1.4375 z m 1.1562,-0.7812 q 0.875,-0.7969 1.1094,-1.25 0.2344,-0.4688 0.2344,-1.0469 0,-0.7657 -0.4375,-1.2031 -0.4219,-0.4376 -1.1719,-0.4376 -0.75,0 -1.2187,0.4376 -0.4688,0.4374 -0.4688,1.0156 0,0.375 0.1875,0.7656 0.2032,0.375 0.5625,0.7188 z m -0.8124,1.0624 q -0.6094,0.5 -0.9063,1.1094 -0.2813,0.6094 -0.2813,1.3125 0,0.9375 0.5157,1.5157 0.5156,0.5624 1.3125,0.5624 0.7968,0 1.2656,-0.4374 0.4844,-0.4532 0.4844,-1.0938 0,-0.5312 -0.2813,-0.9531 -0.5156,-0.7657 -2.1093,-2.0157 z m 11.2656,1.0626 v 1.0312 H 36.1406 V 386 h -1.2031 v -2.625 h -4.2031 v -0.9375 l 4.6094,-6.5781 h 0.7968 v 6.4844 z m -2.5469,0 v -4.9376 l -3.4844,4.9376 z"
         style="stroke:none"
         transform="translate(-6,-5)"
         clip-path="url(#clipPath15)"
         id="path191" />
    </g>
    <g
       transform="translate(6,5)"
       style="font-family:'Times New Roman';color-interpolation:linearRGB;color-rendering:optimizeQuality;image-rendering:optimizeQuality;text-rendering:optimizeLegibility"
       id="g199">
      <path
         d="M 45,307.7512 H 37.42"
         style="fill:none"
         clip-path="url(#clipPath12)"
         id="path195" />
      <path
         d="m 25.875,313 q -1.1719,-0.9688 -1.5156,-1.5469 -0.3438,-0.5937 -0.3438,-1.2187 0,-0.9688 0.75,-1.6719 0.75,-0.7031 1.9844,-0.7031 1.2031,0 1.9375,0.6562 0.7344,0.6563 0.7344,1.4844 0,0.5625 -0.4063,1.1406 -0.3906,0.5782 -1.6406,1.3594 1.2812,1 1.7031,1.5625 0.5625,0.75 0.5625,1.5781 0,1.0469 -0.7968,1.7969 -0.7969,0.7344 -2.0938,0.7344 -1.4219,0 -2.2188,-0.875 -0.625,-0.7188 -0.625,-1.5625 0,-0.6563 0.4376,-1.2969 0.4531,-0.6563 1.5312,-1.4375 z m 1.1562,-0.7812 q 0.875,-0.7969 1.1094,-1.25 0.2344,-0.4688 0.2344,-1.0469 0,-0.7657 -0.4375,-1.2031 -0.4219,-0.4376 -1.1719,-0.4376 -0.75,0 -1.2187,0.4376 -0.4688,0.4374 -0.4688,1.0156 0,0.375 0.1875,0.7656 0.2032,0.375 0.5625,0.7188 z m -0.8124,1.0624 q -0.6094,0.5 -0.9063,1.1094 -0.2813,0.6094 -0.2813,1.3125 0,0.9375 0.5157,1.5157 0.5156,0.5624 1.3125,0.5624 0.7968,0 1.2656,-0.4374 0.4844,-0.4532 0.4844,-1.0938 0,-0.5312 -0.2813,-0.9531 -0.5156,-0.7657 -2.1093,-2.0157 z m 11,-5.4218 v 0.2812 q -0.9688,0.0938 -1.5782,0.3906 -0.6094,0.2813 -1.2031,0.875 -0.5937,0.5938 -0.9844,1.3282 -0.3906,0.7187 -0.6562,1.7187 1.0469,-0.7187 2.1093,-0.7187 1.0157,0 1.7657,0.8281 0.75,0.8125 0.75,2.0937 0,1.25 -0.75,2.2813 -0.9063,1.2344 -2.4063,1.2344 -1.0156,0 -1.7344,-0.6719 -1.3906,-1.3125 -1.3906,-3.3906 0,-1.3438 0.5313,-2.5313 0.5469,-1.2031 1.5312,-2.1406 1,-0.9375 1.9063,-1.25 0.9062,-0.3281 1.6875,-0.3281 z m -4.5469,5.125 q -0.1407,1 -0.1407,1.6094 0,0.7031 0.2657,1.5312 0.2656,0.8125 0.7656,1.2969 0.375,0.3437 0.9219,0.3437 0.625,0 1.125,-0.5937 0.5156,-0.6094 0.5156,-1.7188 0,-1.25 -0.5,-2.1562 -0.5,-0.9219 -1.4219,-0.9219 -0.2812,0 -0.5937,0.125 -0.3125,0.1094 -0.9375,0.4844 z"
         style="stroke:none"
         transform="translate(-6,-5)"
         clip-path="url(#clipPath15)"
         id="path197" />
    </g>
    <g
       transform="translate(6,5)"
       style="font-family:'Times New Roman';color-interpolation:linearRGB;color-rendering:optimizeQuality;image-rendering:optimizeQuality;text-rendering:optimizeLegibility"
       id="g205">
      <path
         d="M 45,240.252 H 37.42"
         style="fill:none"
         clip-path="url(#clipPath12)"
         id="path201" />
      <path
         d="m 25.875,246 q -1.1719,-0.9688 -1.5156,-1.5469 -0.3438,-0.5937 -0.3438,-1.2187 0,-0.9688 0.75,-1.6719 0.75,-0.7031 1.9844,-0.7031 1.2031,0 1.9375,0.6562 0.7344,0.6563 0.7344,1.4844 0,0.5625 -0.4063,1.1406 -0.3906,0.5782 -1.6406,1.3594 1.2812,1 1.7031,1.5625 0.5625,0.75 0.5625,1.5781 0,1.0469 -0.7968,1.7969 -0.7969,0.7344 -2.0938,0.7344 -1.4219,0 -2.2188,-0.875 -0.625,-0.7188 -0.625,-1.5625 0,-0.6563 0.4376,-1.2969 0.4531,-0.6563 1.5312,-1.4375 z m 1.1562,-0.7812 q 0.875,-0.7969 1.1094,-1.25 0.2344,-0.4688 0.2344,-1.0469 0,-0.7657 -0.4375,-1.2031 -0.4219,-0.4376 -1.1719,-0.4376 -0.75,0 -1.2187,0.4376 -0.4688,0.4374 -0.4688,1.0156 0,0.375 0.1875,0.7656 0.2032,0.375 0.5625,0.7188 z m -0.8124,1.0624 q -0.6094,0.5 -0.9063,1.1094 -0.2813,0.6094 -0.2813,1.3125 0,0.9375 0.5157,1.5157 0.5156,0.5624 1.3125,0.5624 0.7968,0 1.2656,-0.4374 0.4844,-0.4532 0.4844,-1.0938 0,-0.5312 -0.2813,-0.9531 -0.5156,-0.7657 -2.1093,-2.0157 z M 33.375,246 q -1.1719,-0.9688 -1.5156,-1.5469 -0.3438,-0.5937 -0.3438,-1.2187 0,-0.9688 0.75,-1.6719 0.75,-0.7031 1.9844,-0.7031 1.2031,0 1.9375,0.6562 0.7344,0.6563 0.7344,1.4844 0,0.5625 -0.4063,1.1406 -0.3906,0.5782 -1.6406,1.3594 1.2812,1 1.7031,1.5625 0.5625,0.75 0.5625,1.5781 0,1.0469 -0.7968,1.7969 -0.7969,0.7344 -2.0938,0.7344 -1.4219,0 -2.2188,-0.875 -0.625,-0.7188 -0.625,-1.5625 0,-0.6563 0.4376,-1.2969 0.4531,-0.6563 1.5312,-1.4375 z m 1.1562,-0.7812 q 0.875,-0.7969 1.1094,-1.25 0.2344,-0.4688 0.2344,-1.0469 0,-0.7657 -0.4375,-1.2031 -0.4219,-0.4376 -1.1719,-0.4376 -0.75,0 -1.2187,0.4376 -0.4688,0.4374 -0.4688,1.0156 0,0.375 0.1875,0.7656 0.2032,0.375 0.5625,0.7188 z m -0.8124,1.0624 q -0.6094,0.5 -0.9063,1.1094 -0.2813,0.6094 -0.2813,1.3125 0,0.9375 0.5157,1.5157 0.5156,0.5624 1.3125,0.5624 0.7968,0 1.2656,-0.4374 0.4844,-0.4532 0.4844,-1.0938 0,-0.5312 -0.2813,-0.9531 -0.5156,-0.7657 -2.1093,-2.0157 z"
         style="stroke:none"
         transform="translate(-6,-5)"
         clip-path="url(#clipPath15)"
         id="path203" />
    </g>
    <g
       transform="translate(6,5)"
       style="font-family:'Times New Roman';color-interpolation:linearRGB;color-rendering:optimizeQuality;image-rendering:optimizeQuality;text-rendering:optimizeLegibility"
       id="g211">
      <path
         d="M 45,172.7529 H 37.42"
         style="fill:none"
         clip-path="url(#clipPath12)"
         id="path207" />
      <path
         d="m 23.7969,183.2031 v -0.2656 q 0.9531,-0.0156 1.7656,-0.4375 0.8281,-0.4375 1.5937,-1.5 0.7657,-1.0781 1.0626,-2.3594 -1.1563,0.7344 -2.0782,0.7344 -1.0468,0 -1.7968,-0.7969 -0.75,-0.8125 -0.75,-2.1562 0,-1.2969 0.75,-2.3281 0.8906,-1.2344 2.3437,-1.2344 1.2344,0 2.0937,1.0156 1.0782,1.25 1.0782,3.0938 0,1.6562 -0.8125,3.0937 -0.8125,1.4219 -2.2657,2.3594 -1.1874,0.7812 -2.5781,0.7812 z m 4.5312,-5.1093 q 0.1407,-0.9532 0.1407,-1.5157 0,-0.7187 -0.25,-1.5312 -0.2344,-0.8281 -0.6876,-1.2657 -0.4374,-0.4374 -1,-0.4374 -0.6562,0 -1.1562,0.5937 -0.4844,0.5781 -0.4844,1.7344 0,1.5469 0.6563,2.4062 0.4843,0.6407 1.1719,0.6407 0.3437,0 0.7968,-0.1563 0.4688,-0.1719 0.8125,-0.4687 z m 2.7188,0 q 0,-1.7032 0.5,-2.9219 0.5156,-1.2344 1.375,-1.8281 0.6562,-0.4844 1.3593,-0.4844 1.1407,0 2.0469,1.1718 1.1407,1.4376 1.1407,3.9063 0,1.7344 -0.5,2.9375 -0.5,1.2031 -1.2813,1.75 -0.7656,0.5469 -1.4844,0.5469 -1.4219,0 -2.3593,-1.6719 -0.7969,-1.4219 -0.7969,-3.4062 z m 1.4375,0.1874 q 0,2.0469 0.5,3.3438 0.4218,1.0938 1.25,1.0938 0.3906,0 0.8125,-0.3594 0.4219,-0.3594 0.6406,-1.1875 0.3437,-1.2657 0.3437,-3.5625 0,-1.6875 -0.3593,-2.8282 -0.25,-0.8437 -0.6719,-1.1874 -0.2969,-0.25 -0.7344,-0.25 -0.4844,0 -0.875,0.4531 -0.5312,0.6093 -0.7187,1.9219 -0.1875,1.2968 -0.1875,2.5624 z"
         style="stroke:none"
         transform="translate(-6,-5)"
         clip-path="url(#clipPath15)"
         id="path209" />
    </g>
    <g
       transform="translate(6,5)"
       style="font-family:'Times New Roman';color-interpolation:linearRGB;color-rendering:optimizeQuality;image-rendering:optimizeQuality;text-rendering:optimizeLegibility"
       id="g217">
      <path
         d="M 45,105.2537 H 37.42"
         style="fill:none"
         clip-path="url(#clipPath12)"
         id="path213" />
      <path
         d="m 23.7969,116.2031 v -0.2656 q 0.9531,-0.0156 1.7656,-0.4375 0.8281,-0.4375 1.5937,-1.5 0.7657,-1.0781 1.0626,-2.3594 -1.1563,0.7344 -2.0782,0.7344 -1.0468,0 -1.7968,-0.7969 -0.75,-0.8125 -0.75,-2.1562 0,-1.2969 0.75,-2.3281 0.8906,-1.2344 2.3437,-1.2344 1.2344,0 2.0937,1.0156 1.0782,1.25 1.0782,3.0938 0,1.6562 -0.8125,3.0937 -0.8125,1.4219 -2.2657,2.3594 -1.1874,0.7812 -2.5781,0.7812 z m 4.5312,-5.1093 q 0.1407,-0.9532 0.1407,-1.5157 0,-0.7187 -0.25,-1.5312 -0.2344,-0.8281 -0.6876,-1.2657 -0.4374,-0.4374 -1,-0.4374 -0.6562,0 -1.1562,0.5937 -0.4844,0.5781 -0.4844,1.7344 0,1.5469 0.6563,2.4062 0.4843,0.6407 1.1719,0.6407 0.3437,0 0.7968,-0.1563 0.4688,-0.1719 0.8125,-0.4687 z m 9.0469,3 L 36.6875,116 h -5.8594 v -0.2656 q 2.5781,-2.3594 3.625,-3.8594 1.0625,-1.5 1.0625,-2.7344 0,-0.9375 -0.5781,-1.5468 -0.5781,-0.6094 -1.3906,-0.6094 -0.7188,0 -1.3125,0.4375 -0.5782,0.4219 -0.8594,1.25 h -0.2656 q 0.1875,-1.3594 0.9375,-2.0781 0.7656,-0.7344 1.8906,-0.7344 1.2187,0 2.0156,0.7812 0.8125,0.7813 0.8125,1.8282 0,0.75 -0.3437,1.5156 -0.5469,1.1875 -1.7657,2.5 -1.8124,2 -2.2812,2.4062 h 2.5938 q 0.7968,0 1.1093,-0.0468 0.3281,-0.0626 0.5781,-0.2344 0.2657,-0.1875 0.4532,-0.5156 z"
         style="stroke:none"
         transform="translate(-6,-5)"
         clip-path="url(#clipPath15)"
         id="path215" />
    </g>
    <g
       transform="translate(6,5)"
       style="font-family:'Times New Roman';color-interpolation:linearRGB;color-rendering:optimizeQuality;image-rendering:optimizeQuality;text-rendering:optimizeLegibility"
       id="g223">
      <path
         d="M 45,37.7545 H 37.42"
         style="fill:none"
         clip-path="url(#clipPath12)"
         id="path219" />
      <path
         d="M 23.7969,48.2031 V 47.9375 Q 24.75,47.9219 25.5625,47.5 q 0.8281,-0.4375 1.5937,-1.5 0.7657,-1.0781 1.0626,-2.3594 -1.1563,0.7344 -2.0782,0.7344 -1.0468,0 -1.7968,-0.7969 -0.75,-0.8125 -0.75,-2.1562 0,-1.2969 0.75,-2.3281 0.8906,-1.2344 2.3437,-1.2344 1.2344,0 2.0937,1.0156 1.0782,1.25 1.0782,3.0938 0,1.6562 -0.8125,3.0937 -0.8125,1.4219 -2.2657,2.3594 -1.1874,0.7812 -2.5781,0.7812 z m 4.5312,-5.1093 q 0.1407,-0.9532 0.1407,-1.5157 0,-0.7187 -0.25,-1.5312 -0.2344,-0.8281 -0.6876,-1.2657 -0.4374,-0.4374 -1,-0.4374 -0.6562,0 -1.1562,0.5937 -0.4844,0.5781 -0.4844,1.7344 0,1.5469 0.6563,2.4062 0.4843,0.6407 1.1719,0.6407 0.3437,0 0.7968,-0.1563 0.4688,-0.1719 0.8125,-0.4687 z m 9.1563,1.25 V 45.375 H 36.1406 V 48 h -1.2031 v -2.625 h -4.2031 v -0.9375 l 4.6094,-6.5781 h 0.7968 v 6.4844 z m -2.5469,0 v -4.9376 l -3.4844,4.9376 z"
         style="stroke:none"
         transform="translate(-6,-5)"
         clip-path="url(#clipPath15)"
         id="path221" />
    </g>
    <g
       transform="translate(6,5)"
       style="font-family:'Times New Roman';color-interpolation:linearRGB;color-rendering:optimizeQuality;image-rendering:optimizeQuality;text-rendering:optimizeLegibility"
       id="g227">
      <path
         d="M 45,409 H 41.21"
         style="fill:none"
         clip-path="url(#clipPath12)"
         id="path225" />
    </g>
    <g
       transform="translate(6,5)"
       style="font-family:'Times New Roman';color-interpolation:linearRGB;color-rendering:optimizeQuality;image-rendering:optimizeQuality;text-rendering:optimizeLegibility"
       id="g231">
      <path
         d="M 45,341.5008 H 41.21"
         style="fill:none"
         clip-path="url(#clipPath12)"
         id="path229" />
    </g>
    <g
       transform="translate(6,5)"
       style="font-family:'Times New Roman';color-interpolation:linearRGB;color-rendering:optimizeQuality;image-rendering:optimizeQuality;text-rendering:optimizeLegibility"
       id="g235">
      <path
         d="M 45,274.0016 H 41.21"
         style="fill:none"
         clip-path="url(#clipPath12)"
         id="path233" />
    </g>
    <g
       transform="translate(6,5)"
       style="font-family:'Times New Roman';color-interpolation:linearRGB;color-rendering:optimizeQuality;image-rendering:optimizeQuality;text-rendering:optimizeLegibility"
       id="g239">
      <path
         d="M 45,206.5025 H 41.21"
         style="fill:none"
         clip-path="url(#clipPath12)"
         id="path237" />
    </g>
    <g
       transform="translate(6,5)"
       style="font-family:'Times New Roman';color-interpolation:linearRGB;color-rendering:optimizeQuality;image-rendering:optimizeQuality;text-rendering:optimizeLegibility"
       id="g243">
      <path
         d="M 45,139.0033 H 41.21"
         style="fill:none"
         clip-path="url(#clipPath12)"
         id="path241" />
    </g>
    <g
       transform="translate(6,5)"
       style="font-family:'Times New Roman';color-interpolation:linearRGB;color-rendering:optimizeQuality;image-rendering:optimizeQuality;text-rendering:optimizeLegibility"
       id="g247">
      <path
         d="M 45,71.5041 H 41.21"
         style="fill:none"
         clip-path="url(#clipPath12)"
         id="path245" />
    </g>
    <g
       transform="translate(6,5)"
       style="font-family:'Times New Roman';color-interpolation:linearRGB;color-rendering:optimizeQuality;image-rendering:optimizeQuality;text-rendering:optimizeLegibility"
       id="g251">
      <path
         d="M 45,4.0049 H 41.21"
         style="fill:none"
         clip-path="url(#clipPath12)"
         id="path249" />
    </g>
  </g>
</svg>
